inDegrees=no
num_controls=7
num_derivatives=13
num_iterations=122
num_multipliers=7
num_parameters=0
num_slacks=7
num_states=26
objective=4.989827
objective_accelerations=0.547819
objective_balance=0.021812
objective_effort=0.150215
objective_height=4.194720
objective_ligament=0.075262
solver_duration=1336.355226
status=Solve_Succeeded
success=true
DataType=double
version=3
OpenSimVersion=4.4-2022-07-23-0e9fedc
endheader
time	/jointset/ground_pelvis/pelvis_tilt/value	/jointset/ground_pelvis/pelvis_tx/value	/jointset/ground_pelvis/pelvis_ty/value	/jointset/hip_l/hip_flexion_l/value	/jointset/hip_l/hip_adduction_l/value	/jointset/hip_l/hip_rotation_l/value	/jointset/back/lumbar_extension/value	/jointset/patellofemoral_l/patellar_flexion_l/value	/jointset/knee_l/knee_flexion_l/value	/jointset/knee_l/knee_adduction_l/value	/jointset/knee_l/knee_rotation_l/value	/jointset/ankle_l/ankle_angle_l/value	/jointset/subtalar_l/subtalar_angle_l/value	/jointset/ground_pelvis/pelvis_tilt/speed	/jointset/ground_pelvis/pelvis_tx/speed	/jointset/ground_pelvis/pelvis_ty/speed	/jointset/hip_l/hip_flexion_l/speed	/jointset/hip_l/hip_adduction_l/speed	/jointset/hip_l/hip_rotation_l/speed	/jointset/back/lumbar_extension/speed	/jointset/patellofemoral_l/patellar_flexion_l/speed	/jointset/knee_l/knee_flexion_l/speed	/jointset/knee_l/knee_adduction_l/speed	/jointset/knee_l/knee_rotation_l/speed	/jointset/ankle_l/ankle_angle_l/speed	/jointset/subtalar_l/subtalar_angle_l/speed	/forceset/tau_hip_flexion_l	/forceset/tau_hip_adduction_l	/forceset/tau_hip_rotation_l	/forceset/tau_knee_flexion_l	/forceset/tau_ankle_angle_l	/forceset/tau_subtalar_angle_l	/forceset/tau_lumbar_extension	lambda_cid13_p0	lambda_cid13_p1	lambda_cid13_p2	lambda_cid13_p3	lambda_cid13_p4	lambda_cid13_p5	lambda_cid14_p0	/jointset/ground_pelvis/pelvis_tilt/accel	/jointset/ground_pelvis/pelvis_tx/accel	/jointset/ground_pelvis/pelvis_ty/accel	/jointset/hip_l/hip_flexion_l/accel	/jointset/hip_l/hip_adduction_l/accel	/jointset/hip_l/hip_rotation_l/accel	/jointset/back/lumbar_extension/accel	/jointset/patellofemoral_l/patellar_flexion_l/accel	/jointset/knee_l/knee_flexion_l/accel	/jointset/knee_l/knee_adduction_l/accel	/jointset/knee_l/knee_rotation_l/accel	/jointset/ankle_l/ankle_angle_l/accel	/jointset/subtalar_l/subtalar_angle_l/accel	gamma_cid13_p0	gamma_cid13_p1	gamma_cid13_p2	gamma_cid13_p3	gamma_cid13_p4	gamma_cid13_p5	gamma_cid14_p0
0	0.04611330960315545	0.1088907266440386	0.9028175470609091	0.1266917050730164	-0.370422030342773	-0.2365903010316522	-0.2144974744115991	0.2051547269256571	0.2051547269256735	-0.1745310286501095	-0.1713483540559471	0.09024399430361882	0.07875709700873809	0	0	0	0	0	0	0	0	0	0	0	0	0	0.1223994152518673	-0.09829237629459887	-0.01529041809931071	-0.2743625219725553	0.2222491467143543	-0.06520400914747118	-0.05068818914210934	42.0172285383423	22.20502208348049	-5.24185475984677	-35.02029684715773	-441.889298822836	-76.48094667393094	-26.6379515510708	-2.851869327778111	-0.5284454227924515	-0.7311130148771583	9.453809755862276	-0.1152657060691049	3.147487429897235	-3.341422285067225	9.316994398764718	9.316994398764615	2.149062682139721	-0.4591494236950894	3.687900978875593	0.9428998692179236	6.116714745396072e-09	5.680471278642258e-07	-1.315198921666489e-07	5.166281867270193e-08	2.473535504392203e-09	2.744476035873796e-07	7.656669061228698e-08
0.01	0.04597729808466197	0.108864427086361	0.9027820699103721	0.1271510771421764	-0.3704269173851948	-0.2364258055906537	-0.2146678239262245	0.2056089763297756	0.2056089763292851	-0.174425344322108	-0.1713598860899214	0.0904243568122803	0.0788038929567673	-0.02708371014938622	-0.005270162994562364	-0.007075022300163152	0.09150533118434481	-0.0009852124167513306	0.03275808016391528	-0.03383565241374128	0.09043835243985172	0.09043835243986049	0.02100177855300668	-0.002286505301365379	0.03585803815471063	0.009289819971592946	0.1186247886808169	-0.1050520005614785	-0.01423578427501542	-0.2684335238684876	0.2109646491614258	-0.05586486061910501	-0.0478952087879049	38.88527718288625	18.34615943342368	-4.225430946554699	-32.88307223442408	-442.4588892458478	-84.00633553903232	-26.63728292810946	-2.618832195258077	-0.5278291226297925	-0.6926351719599472	8.943532216785796	-0.09138168707732391	3.318853385516378	-3.369499143786138	8.845511106103821	8.845511106104844	2.055551633387648	-0.1104500580154497	3.502601146164249	0.9115439437842064	1.232876314786226e-09	7.923916128521045e-07	-1.220079201722889e-07	7.891370235857948e-08	-1.367512577851395e-07	3.014262832766262e-07	1.077440342726224e-07
0.02	0.0455740073973535	0.1087851204217701	0.9026764548699622	0.1285144300066081	-0.3704419030873508	-0.2359379523329138	-0.2151695024498405	0.2069552603454829	0.2069552603454836	-0.174113678970639	-0.1713936929729903	0.09095686888495091	0.07894149128104334	-0.05345583376853772	-0.0106014213826915	-0.01402757797459907	0.180796159051218	-0.0020197319375565	0.06467156336294522	-0.06626580179789879	0.1784069224600699	0.1784069224600873	0.04119620476626916	-0.004454969588977267	0.07042991280527729	0.01816047524934762	0.1148501621101867	-0.1118116248280816	-0.013181150444693	-0.2625045257645995	0.1996801516088634	-0.04652571209040642	-0.0451022284338303	35.79622792953855	14.49262322854569	-3.224522323050674	-30.8151377649495	-442.2827047265199	-91.364962230486	-26.63511168689838	-2.709552021731704	-0.5406645015052884	-0.7066196897317647	9.010909092367733	-0.1251271268801439	2.978568036920301	-3.060321679150844	8.823037914837929	8.823037914837782	1.987592214190335	-0.4355412209443253	3.430668278047335	0.8590669304501148	-3.65096211582362e-09	1.016736097839983e-06	-1.124959481779289e-07	1.06164586044457e-07	-2.759760510746713e-07	3.284049629658729e-07	1.389213779329578e-07
0.03	0.04491018620787556	0.1086521961074153	0.9025017264430686	0.1307601903820389	-0.3704672923625086	-0.2351366196985263	-0.2159881193158144	0.2091693151938605	0.2091693151941529	-0.1736037870751042	-0.1714498280844532	0.09182875883447179	0.0791659797941265	-0.07919368241786631	-0.01599257065929187	-0.02091198114289016	0.2679851181784831	-0.003047314496959505	0.095468079086573	-0.09722397293813655	0.2639754897574745	0.2639754897574778	0.06065626847221407	-0.00670602193821334	0.103729067459023	0.0266892027938274	0.1107723296144171	-0.1063426113922286	-0.0121016248310268	-0.2567266887637973	0.1916278995452003	-0.04807893005132812	-0.04212763834634789	33.09840533483904	15.44249065225963	-3.150861624300514	-28.73350000321576	-442.3455028951192	-88.54714628213041	-26.6312517045824	-2.48868622394973	-0.5396881720845615	-0.6784874489951774	8.517270983701563	-0.09008603680311864	3.111207453219028	-3.078525063830186	8.359454601433514	8.359454601431324	1.906486746210632	-0.1100240451178626	3.246718568636394	0.8424248699714368	-7.351036788685507e-09	1.121150609455352e-06	-1.049139634170949e-07	1.21851693027478e-07	-3.814063416634535e-07	3.342659865407108e-07	1.550894002557588e-07
0.04	0.0439924295444736	0.1084650906940261	0.9022583266207655	0.133866716680941	-0.370502659906521	-0.2340311190842536	-0.2171093099396494	0.2122261934084951	0.2122261934084906	-0.1729030398826707	-0.17152650107931	0.09302707623245822	0.07947428542335966	-0.1042429285639132	-0.02143764118959154	-0.02776185705650088	0.3529493437375268	-0.004015385709626459	0.1255051593356704	-0.1267805533732415	0.3469715956245317	0.3469715956245236	0.07936726407473738	-0.008562546415626116	0.1357154024967044	0.03492389847929668	0.1066944971184995	-0.1008735979564873	-0.01102209922115644	-0.2509488517627178	0.1835756474813966	-0.04963214801236371	-0.03915304825876005	30.43967129195942	16.40004822745595	-3.09502996394369	-26.71135816572684	-441.718469663192	-85.56760183803001	-26.62511486067604	-2.571831521075725	-0.5514487522446896	-0.6997142387957205	8.565962378723293	-0.113224857533042	2.826680942014321	-2.780003538124556	8.308545628768362	8.308545628768758	1.837778593505873	-0.3566356465795425	3.168104354834984	0.8002605586480718	-1.102670396138764e-08	1.223092338114586e-06	-9.737177220746753e-08	1.373003716248731e-07	-4.861398383821173e-07	3.396915945255609e-07	1.709479520355179e-07
0.05	0.04282723181315196	0.1082232685613106	0.9019463954226712	0.1378124840340248	-0.3705474855643919	-0.2326308574463974	-0.2185187412883081	0.2161009848731022	0.2161009848730288	-0.1720189872955793	-0.1716216733786491	0.09453887425720742	0.0798634880559926	-0.1286794428763176	-0.02693408881435539	-0.03463160350542915	0.4358335950613972	-0.004936799078399966	0.1544031766430392	-0.1548838095266531	0.4275685858840406	0.4275685858840435	0.09730755684756458	-0.01041180683717607	0.1664294401135836	0.04287455666297048	0.1023898657354819	-0.09816308958486389	-0.009796268581903422	-0.2454095217846686	0.1747878701516029	-0.04833096918976049	-0.0360510334045041	27.69864586896364	16.1113195832621	-2.81648327010194	-24.72347222596937	-441.3115938431619	-85.17989312517564	-26.61606844952373	-2.361973255984905	-0.5498107009120576	-0.6817860637368571	8.094079832055181	-0.07982309963647262	2.899814310794158	-2.792200630226513	7.872524696249457	7.872524696250323	1.751996364233477	-0.09009816582729208	2.990877709589597	0.7859765440791918	-1.174717336694281e-08	1.226853131362426e-06	-1.071689763354109e-07	1.419073646523323e-07	-5.454023601907144e-07	3.444410689692121e-07	1.755539312035146e-07
